<svg width="20" height="20" viewBox="0 0 20 20" fill="none" xmlns="http://www.w3.org/2000/svg">
<path d="M11.7825 11.7126C11.5573 11.9543 11.2858 12.148 10.9841 12.2825C10.6825 12.4169 10.3568 12.4891 10.0266 12.495C9.69642 12.5008 9.36843 12.4401 9.06221 12.3164C8.75599 12.1927 8.47782 12.0086 8.24429 11.7751C8.01077 11.5415 7.82667 11.2634 7.70298 10.9571C7.57929 10.6509 7.51855 10.3229 7.52438 9.99273C7.5302 9.66252 7.60248 9.33687 7.73689 9.03521C7.87131 8.73354 8.0651 8.46204 8.30672 8.2369M14.9139 14.8441C13.5126 15.9122 11.8063 16.504 10.0446 16.5328C4.30634 16.5328 1.02734 9.97476 1.02734 9.97476C2.04702 8.0745 3.46129 6.41427 5.17528 5.10545L14.9139 14.8441ZM8.32311 3.61351C8.88737 3.48143 9.46508 3.41541 10.0446 3.41677C15.7828 3.41677 19.0618 9.97476 19.0618 9.97476C18.5642 10.9057 17.9708 11.7821 17.2912 12.5898L8.32311 3.61351Z" stroke="black" stroke-width="1.38727" stroke-linecap="round" stroke-linejoin="round"/>
<path d="M1.02734 0.95752L19.0618 18.992" stroke="black" stroke-width="1.38727" stroke-linecap="round" stroke-linejoin="round"/>
</svg>
