<svg width="32" height="32" viewBox="0 0 32 32" fill="none" xmlns="http://www.w3.org/2000/svg">
<path fill-rule="evenodd" clip-rule="evenodd" d="M21.6663 11.7502C21.6663 13.2531 21.0693 14.6944 20.0066 15.7571C18.9439 16.8198 17.5026 17.4168 15.9997 17.4168C14.4968 17.4168 13.0554 16.8198 11.9927 15.7571C10.93 14.6944 10.333 13.2531 10.333 11.7502C10.333 10.2473 10.93 8.80593 11.9927 7.74322C13.0554 6.68052 14.4968 6.0835 15.9997 6.0835C17.5026 6.0835 18.9439 6.68052 20.0066 7.74322C21.0693 8.80593 21.6663 10.2473 21.6663 11.7502ZM18.833 11.7502C18.833 12.5016 18.5345 13.2223 18.0031 13.7536C17.4718 14.285 16.7511 14.5835 15.9997 14.5835C15.2482 14.5835 14.5276 14.285 13.9962 13.7536C13.4649 13.2223 13.1663 12.5016 13.1663 11.7502C13.1663 10.9987 13.4649 10.278 13.9962 9.74669C14.5276 9.21534 15.2482 8.91683 15.9997 8.91683C16.7511 8.91683 17.4718 9.21534 18.0031 9.74669C18.5345 10.278 18.833 10.9987 18.833 11.7502Z" fill="#333333"/>
<path fill-rule="evenodd" clip-rule="evenodd" d="M15.9998 0.417114C7.39359 0.417114 0.416504 7.3942 0.416504 16.0004C0.416504 24.6067 7.39359 31.5838 15.9998 31.5838C24.6061 31.5838 31.5832 24.6067 31.5832 16.0004C31.5832 7.3942 24.6061 0.417114 15.9998 0.417114ZM3.24984 16.0004C3.24984 18.9613 4.25992 21.6869 5.95284 23.8516C7.14175 22.2903 8.67553 21.025 10.4344 20.1546C12.1932 19.2841 14.1295 18.8321 16.0919 18.8338C18.029 18.8319 19.9409 19.2723 21.682 20.1212C23.4231 20.9702 24.9475 22.2053 26.1389 23.7326C27.3664 22.1227 28.1929 20.2437 28.5499 18.2509C28.907 16.2582 28.7844 14.2091 28.1924 12.2732C27.6003 10.3372 26.5557 8.5701 25.1451 7.118C23.7345 5.6659 21.9984 4.57058 20.0804 3.92267C18.1624 3.27475 16.1177 3.09287 14.1155 3.39208C12.1132 3.69128 10.211 4.46296 8.56626 5.64327C6.92148 6.82359 5.5814 8.3786 4.65691 10.1796C3.73242 11.9807 3.25009 13.976 3.24984 16.0004ZM15.9998 28.7504C13.0729 28.7548 10.2344 27.7479 7.9645 25.9001C8.87815 24.5922 10.0942 23.5242 11.5093 22.7873C12.9243 22.0503 14.4965 21.666 16.0919 21.6671C17.6675 21.6659 19.2206 22.0405 20.6223 22.76C22.024 23.4794 23.2339 24.5229 24.1513 25.8038C21.8638 27.7116 18.9785 28.7546 15.9998 28.7504Z" fill="#333333"/>
</svg>
